{
    "asset" : {
        "generator" : "Khronos glTF Blender I/O v1.1.46",
        "version" : "2.0"
    },
    "scene" : 0,
    "scenes" : [
        {
            "name" : "Scene",
            "nodes" : [
                0,
                1,
                2,
                3
            ]
        }
    ],
    "nodes" : [
        {
            "name" : "Light",
            "rotation" : [
                0.01866973377764225,
                0.7997201085090637,
                -0.18159569799900055,
                0.5719460248947144
            ],
            "translation" : [
                4.076245307922363,
                5.903861999511719,
                -1.0054539442062378
            ]
        },
        {
            "name" : "Camera",
            "rotation" : [
                0.483536034822464,
                0.33687159419059753,
                -0.20870360732078552,
                0.7804827094078064
            ],
            "translation" : [
                7.358891487121582,
                4.958309173583984,
                6.925790786743164
            ]
        },
        {
            "mesh" : 0,
            "name" : "Jaw",
            "rotation" : [
                0.7071068286895752,
                0,
                0,
                0.7071067094802856
            ]
        },
        {
            "mesh" : 1,
            "name" : "Head",
            "rotation" : [
                0.7071068286895752,
                0,
                0,
                0.7071067094802856
            ]
        }
    ],
    "materials" : [
        {
            "doubleSided" : true,
            "name" : "Material.002",
            "pbrMetallicRoughness" : {}
        },
        {
            "doubleSided" : true,
            "name" : "Material.001",
            "pbrMetallicRoughness" : {}
        }
    ],
    "meshes" : [
        {
            "name" : "Jaw",
            "primitives" : [
                {
                    "attributes" : {
                        "POSITION" : 0,
                        "NORMAL" : 1,
                        "TEXCOORD_0" : 2
                    },
                    "indices" : 3,
                    "material" : 0
                }
            ]
        },
        {
            "name" : "Head",
            "primitives" : [
                {
                    "attributes" : {
                        "POSITION" : 4,
                        "NORMAL" : 5,
                        "TEXCOORD_0" : 6
                    },
                    "indices" : 7,
                    "material" : 1
                }
            ]
        }
    ],
    "accessors" : [
        {
            "bufferView" : 0,
            "componentType" : 5126,
            "count" : 1540,
            "max" : [
                2.9341869354248047,
                4.185235023498535,
                4.787373065948486
            ],
            "min" : [
                -2.957062005996704,
                -0.40044501423835754,
                0.4198330044746399
            ],
            "type" : "VEC3"
        },
        {
            "bufferView" : 1,
            "componentType" : 5126,
            "count" : 1540,
            "type" : "VEC3"
        },
        {
            "bufferView" : 2,
            "componentType" : 5126,
            "count" : 1540,
            "type" : "VEC2"
        },
        {
            "bufferView" : 3,
            "componentType" : 5123,
            "count" : 4992,
            "type" : "SCALAR"
        },
        {
            "bufferView" : 4,
            "componentType" : 5126,
            "count" : 3191,
            "max" : [
                3.831732988357544,
                4.596027851104736,
                2.9643568992614746
            ],
            "min" : [
                -3.8984079360961914,
                -4.90775203704834,
                -5.59201192855835
            ],
            "type" : "VEC3"
        },
        {
            "bufferView" : 5,
            "componentType" : 5126,
            "count" : 3191,
            "type" : "VEC3"
        },
        {
            "bufferView" : 6,
            "componentType" : 5126,
            "count" : 3191,
            "type" : "VEC2"
        },
        {
            "bufferView" : 7,
            "componentType" : 5123,
            "count" : 11664,
            "type" : "SCALAR"
        }
    ],
    "bufferViews" : [
        {
            "buffer" : 0,
            "byteLength" : 18480,
            "byteOffset" : 0
        },
        {
            "buffer" : 0,
            "byteLength" : 18480,
            "byteOffset" : 18480
        },
        {
            "buffer" : 0,
            "byteLength" : 12320,
            "byteOffset" : 36960
        },
        {
            "buffer" : 0,
            "byteLength" : 9984,
            "byteOffset" : 49280
        },
        {
            "buffer" : 0,
            "byteLength" : 38292,
            "byteOffset" : 59264
        },
        {
            "buffer" : 0,
            "byteLength" : 38292,
            "byteOffset" : 97556
        },
        {
            "buffer" : 0,
            "byteLength" : 25528,
            "byteOffset" : 135848
        },
        {
            "buffer" : 0,
            "byteLength" : 23328,
            "byteOffset" : 161376
        }
    ],
    "buffers" : [
        {
            "byteLength" : 184704,
            "uri" : "data:application/octet-stream;base64,"
        }
    ]
}
