<svg width="40" height="40" viewBox="0 0 40 40" fill="none" xmlns="http://www.w3.org/2000/svg">
<g id="instagram 1">
<path id="Vector" d="M28.3333 3.33325H11.6666C7.06427 3.33325 3.33331 7.06421 3.33331 11.6666V28.3333C3.33331 32.9356 7.06427 36.6666 11.6666 36.6666H28.3333C32.9357 36.6666 36.6666 32.9356 36.6666 28.3333V11.6666C36.6666 7.06421 32.9357 3.33325 28.3333 3.33325Z" stroke="#354147" stroke-width="2" stroke-linecap="round" stroke-linejoin="round"/>
<path id="Vector_2" d="M26.6666 18.95C26.8723 20.3371 26.6354 21.7537 25.9896 22.9984C25.3437 24.243 24.3219 25.2524 23.0693 25.8828C21.8168 26.5132 20.3974 26.7327 19.0129 26.5099C17.6285 26.2871 16.3496 25.6335 15.358 24.6419C14.3665 23.6504 13.7128 22.3715 13.4901 20.987C13.2673 19.6026 13.4867 18.1832 14.1172 16.9306C14.7476 15.6781 15.7569 14.6562 17.0016 14.0104C18.2463 13.3646 19.6629 13.1277 21.05 13.3333C22.4648 13.5432 23.7747 14.2025 24.7861 15.2139C25.7975 16.2253 26.4568 17.5351 26.6666 18.95Z" stroke="#354147" stroke-width="2" stroke-linecap="round" stroke-linejoin="round"/>
<path id="Vector_3" d="M29.1666 10.8333H29.1833" stroke="#354147" stroke-width="2" stroke-linecap="round" stroke-linejoin="round"/>
</g>
</svg>
