<?xml version="1.0" standalone="no"?>
<!DOCTYPE svg PUBLIC "-//W3C//DTD SVG 20010904//EN"
 "http://www.w3.org/TR/2001/REC-SVG-20010904/DTD/svg10.dtd">
<svg version="1.0" xmlns="http://www.w3.org/2000/svg"
 width="260.000000pt" height="260.000000pt" viewBox="0 0 260.000000 260.000000"
 preserveAspectRatio="xMidYMid meet">
<metadata>
Created by potrace 1.11, written by Peter Selinger 2001-2013
</metadata>
<g transform="translate(0.000000,260.000000) scale(0.100000,-0.100000)"
fill="#000000" stroke="none">
<path d="M1456 2108 c-8 -13 -41 -120 -74 -238 -33 -118 -133 -473 -223 -789
-120 -426 -160 -578 -152 -590 13 -21 87 -45 117 -37 22 5 34 44 164 503 318
1121 316 1115 306 1131 -9 14 -82 41 -111 42 -7 0 -19 -10 -27 -22z"/>
<path d="M493 1605 c-158 -162 -289 -304 -291 -316 -3 -15 53 -77 225 -251
125 -127 256 -259 291 -294 37 -38 71 -64 83 -64 23 0 99 76 99 100 0 17 -71
93 -317 341 -163 164 -165 167 -147 186 11 11 119 121 242 245 124 127 222
234 222 244 0 23 -79 104 -101 104 -9 0 -147 -133 -306 -295z"/>
<path d="M1742 1857 c-23 -23 -42 -51 -42 -60 0 -13 201 -224 479 -503 2 -2
-50 -59 -117 -126 -255 -260 -362 -374 -362 -389 0 -23 76 -99 100 -99 12 0
52 32 101 83 45 45 175 177 290 293 135 136 209 218 209 231 0 26 -574 613
-599 613 -9 0 -36 -19 -59 -43z"/>
</g>
</svg>
